<svg xmlns="http://www.w3.org/2000/svg" viewBox="877 1452 94.967 150"><defs><style>.a{fill:#494658;}</style></defs><path class="a" d="M55.315,77.461c2.165-3.346,4.921-3.445,8.071-3.839,1.28-15.059.591-29.921.787-45.079A73.128,73.128,0,0,0,81,2.559a280.463,280.463,0,0,1-3.346,29.134c-5.413,3.543-6.693,6.5-4.232,9.744a5.713,5.713,0,0,0,7.874.984c3.15-2.559,2.756-5.61-1.673-10.433C80.906,21.654,81.595,10.728,83.76,0c.689,11.713,5.02,22.146,11.22,31.89-4.429,14.173-6.2,28.74-8.661,42.815,1.673,2.756,4.921,2.264,6.594,5.61-2.461,18.307-3.937,37.6-5.807,56.791,3.15,1.969,7.382,2.461,6.693,7.677C63.681,133.858,34.547,140.748,5.61,150c-1.476-3.051.394-3.937,2.461-4.823a22.367,22.367,0,0,0,5.709-3.15c-1.083-6.2-2.165-12.8-3.248-19.39-3.15-19-5.807-37.992-9.547-56.693C-1.87,52.067,2.362,39.075,3.544,25.591a79.233,79.233,0,0,1,1.772-9.646c.394-1.673.394-3.642,2.362-4.724,1.969-.492,2.854.984,3.839,2.362A218.017,218.017,0,0,1,31.5,49.606c3.051,6.693,3.15,14.665,4.429,22.047q5.02,28.789,9.843,57.579c.3,1.575.394,3.248,1.87,4.429,2.067.1,2.461-1.28,2.559-2.854.984-8.661,2.264-17.224,2.854-25.886C53.74,95.669,56.2,86.516,55.315,77.461Zm26.969,58.366q2.805-27.756,5.512-53.839c-5.709-3.937-21.85-5.02-27.264-1.969-1.28,17.323-4.134,35.039-5.217,53.15A136.929,136.929,0,0,1,82.284,135.827ZM4.725,57.283C9.547,85.138,14.37,112.5,19.193,140.157c3.445-.787,6-1.083,8.563-3.051-4.724-26.968-8.76-54.134-13.878-81.3C10.63,56.3,8.17,56.693,4.725,57.283Zm36.417,77.165C36.614,107.48,32.087,80.61,27.658,54.035a19.573,19.573,0,0,0-8.563,1.772q7.087,40.157,13.976,79.921C36.221,136.319,38.189,135.138,41.142,134.449Zm-25.1-107.48c-3.445.2-6.5,0-9.252,2.264C6,37.3,3.937,45.276,4.134,54.134c7.776-1.476,15.256-1.87,22.933-4.232C23.229,41.929,19.685,34.547,16.044,26.969Z" transform="translate(876.986 1452)"/></svg>