<svg xmlns="http://www.w3.org/2000/svg" viewBox="859 2279 151.681 150"><defs><style>.a{fill:#494658;}</style></defs><g transform="translate(859 2279)"><path class="a" d="M68.166,128.279c-1.4,3.782-2.8,7.423-4.342,11.485H51.08c-1.541-3.782-2.941-7.7-4.482-11.625-3.922-1.681-7.7-3.5-11.765-5.322q-5.462,2.311-11.765,5.042c-2.661-2.941-5.322-5.742-8.4-9.244,1.4-3.221,2.941-7,4.622-10.924-1.681-3.922-3.361-7.7-5.182-11.9-3.641-1.4-7.423-2.941-11.9-4.622V78.559c3.782-1.4,7.7-2.941,11.625-4.342,1.821-3.922,3.5-7.563,5.462-11.9-1.541-3.641-3.221-7.423-5.182-12.045,3.081-2.241,6.3-4.622,10.5-7.7,2.241.98,6.3,2.661,9.384,4.062,9.664-1.4,15.546-6.3,16.527-15.826H63.4c1.4,3.5,2.8,7.143,4.482,11.2,3.641,1.541,7.7,3.221,11.9,4.9,3.782-1.681,7.563-3.361,11.9-5.322,2.8,2.8,5.6,5.462,8.543,8.4-1.821,4.342-3.5,8.123-5.182,12.185q2.1,5.672,4.622,11.765c3.5,1.4,7.143,2.941,10.924,4.482V91.164c-8.543,1.821-14.426,6.583-14.846,17.647.98,2.241,2.661,6.022,4.622,10.364-3.081,2.521-6.162,4.9-9.944,7.983-2.521-1.12-6.3-2.661-10.5-4.342C76.15,124.778,72.228,126.458,68.166,128.279ZM57.8,107.271c12.465-.14,22.689-10.644,22.409-22.829C79.931,72.117,69.147,61.752,57.1,62.033c-12.465.28-21.989,10.364-21.989,23.109C35.253,97.887,44.917,107.411,57.8,107.271Z" transform="translate(-2.2 10.236)"/><path class="a" d="M72.722,35.113V27.27c-1.4-.84-3.361-2.1-5.322-3.5.98-2.661,1.681-4.622,2.521-6.723,2.521-.28,4.762-.42,7.423-.7q2.1-1.891,5.042-4.622c.28-2.521.42-5.042.7-7.843,1.821-.7,3.782-1.541,5.742-2.381,1.821,1.961,3.5,3.5,5.322,5.182h7.143c1.541-1.541,3.361-3.081,5.322-4.9,1.821.7,3.782,1.4,5.742,2.241.14,2.521.28,4.9.56,7.423,1.4,1.541,2.941,3.081,4.762,4.9,2.241.14,4.482.42,7.283.56.84,1.541,1.681,3.361,2.8,5.462-1.541,1.821-3.081,3.5-4.9,5.462v7.983c1.26.98,2.941,2.1,4.9,3.5-.84,2.661-1.681,4.762-2.381,7-2.521.14-4.762.42-7.563.56-1.4,1.4-3.221,2.941-4.9,4.482-.14,2.381-.28,4.622-.42,7.423-1.541.7-3.221,1.4-5.042,2.241-1.821-1.541-3.5-3.081-5.462-4.622H95.551c-1.541,1.261-3.361,2.661-5.742,4.622-2.1-.7-4.482-1.4-6.863-2.241-.14-2.661-.28-5.042-.42-7.843-1.4-1.261-2.941-2.661-4.482-4.062-2.381-.14-4.622-.42-7.563-.56-.84-1.681-1.681-3.782-2.661-5.882C69.5,38.755,71.041,37.074,72.722,35.113Zm24.79,9.524a13.129,13.129,0,0,0,13.165-12.605A12.623,12.623,0,0,0,97.932,18.587,12.825,12.825,0,0,0,84.767,31.052,13.16,13.16,0,0,0,97.512,44.637Z" transform="translate(23.917 -1.5)"/></g></svg>