<svg xmlns="http://www.w3.org/2000/svg" viewBox="866 3188.54 138.482 115.402"><defs><style>.a{fill:#494658;}</style></defs><path class="a" d="M132.712,53.989l-28.85-.058a5.787,5.787,0,0,0-5.77,5.77v51.931a5.787,5.787,0,0,0,5.77,5.77h28.85a5.787,5.787,0,0,0,5.77-5.77V59.7A5.738,5.738,0,0,0,132.712,53.989Zm0,51.873h-28.85V65.471h28.85ZM115.4,2H11.54A11.5,11.5,0,0,0,0,13.54V82.781a11.537,11.537,0,0,0,11.54,11.54H51.931v11.54H40.391V117.4H86.551v-11.54H75.011V94.321h11.54V82.781H11.54V13.54H115.4v28.85h11.54V13.54A11.537,11.537,0,0,0,115.4,2ZM69.068,42.391l-5.6-17.31-5.6,17.31H40.391L54.643,52.546,49.219,69.337,63.471,58.951,77.723,69.337,72.3,52.546,86.551,42.391Z" transform="translate(866 3186.54)"/></svg>