<?xml version="1.0" encoding="utf-8"?>
<svg version="1.1" id="Layer_1" xmlns="http://www.w3.org/2000/svg" xmlns:xlink="http://www.w3.org/1999/xlink" x="0px" y="0px"
	 viewBox="-292 382.3 25.5 28.7" style="enable-background:new -292 382.3 25.5 28.7;" xml:space="preserve">
<style type="text/css">
	.st0{fill:#30B97A;}
</style>
<g transform="translate(372.949 16.027)">
	<path class="st0" d="M-648.1,388.4v3.1c-0.1,1.3-0.4,2.5-1.7,3c-1.5,0.5-3.3,1-4.5-0.4c-1.3-1.4-3.2-2.2-5.2-2.2
		c-1.3-0.1-2.5-0.4-3.6-1.1c-1.9-1.2-2.4-2.8-1.2-4.8c1-1.7,2.5-3,4.3-3.9c1.2-0.8,2.6-1.3,4-1.7c2.4-0.8,5.1,0.2,6.3,2.5
		c0.5,0.8,0.9,1.6,1.1,2.5c0.6-1.7,1.8-3.2,3.4-4.2c1.1-0.7,2.4-1,3.7-0.7c1.4,0.3,2.3,1.8,2,3.2c-0.6,2.6-2.4,4.7-4.8,5.6
		c-1,0.5-2.2,0.3-3-0.4C-647.6,388.7-647.9,388.6-648.1,388.4z M-648.9,389.5c0.1-2.5-0.6-5-1.9-7.1c-0.7-1.3-2.2-1.9-3.6-1.6
		c-3.7,0.5-7,2.6-9,5.7c-1,1.4-0.5,2.6,1,3.3c1.1,0.5,2.2,0.7,3.4,0.7c2.1,0.1,3.9,0.6,5.2,2.4l0.3,0.3c1,1,2.6,0.9,3.6-0.1
		c0.3-0.3,0.5-0.8,0.6-1.2C-649,391.1-648.9,390.3-648.9,389.5z M-640.2,383.2c0.1-0.8-0.3-1.6-1-2c-1-0.4-2.1-0.4-3,0.2
		c-1.3,0.9-2.4,2.2-3,3.7c-0.6,1-0.2,2.4,0.8,2.9c0.6,0.3,1.3,0.4,2,0.1c1.8-0.9,3.3-2.4,4.1-4.3
		C-640.2,383.6-640.2,383.4-640.2,383.2z"/>
	<path class="st0" d="M-640.7,373.1c-0.3,2.1-1.2,4-2.7,5.4c-0.6,0.6-1.3,1.2-2.1,1.6c-1.3,0.8-3.1,0.5-3.9-0.8
		c-0.2-0.3-0.3-0.6-0.4-1c-0.3-1.1-0.2-2.3,0.3-3.3c1-2.5,3.3-4.3,6-4.7C-641.9,370-640.6,371.2-640.7,373.1z M-648.7,376.7
		c0,2,1.3,2.8,3.1,2c0.4-0.2,0.8-0.4,1.1-0.7c1-1,1.9-2.1,2.6-3.3c0.4-0.7,0.6-1.5,0.4-2.3c0-0.9-0.8-1.7-1.8-1.7
		c-0.1,0-0.3,0-0.4,0.1C-646.5,371.4-648.5,373.8-648.7,376.7z"/>
	<path class="st0" d="M-648.8,370.3c0.1,2.4-0.8,4.8-2.6,6.4c-1,1.1-2.7,1.1-3.8,0.1c-0.2-0.2-0.4-0.4-0.5-0.6
		c-0.5-0.5-0.8-1.3-0.8-2c-0.3-2.7,0.8-5.3,2.8-7c1.9-1.7,4.1-1,4.8,1.6C-648.8,369.3-648.8,369.8-648.8,370.3z M-649.6,370.2
		c0-0.7-0.1-1.4-0.4-2c-0.7-1.6-1.6-1.9-3.1-0.8c-2,1.9-2.8,4.8-2,7.4c0.3,1,1.4,1.6,2.4,1.3c0.4-0.1,0.8-0.4,1.1-0.8
		C-650.5,373.8-649.8,372-649.6,370.2z"/>
	<path class="st0" d="M-657,376c0.1,1.7-0.4,3.3-1.5,4.6c-1,1.2-2.8,1.4-4,0.4c-0.2-0.1-0.3-0.3-0.4-0.4c-2.1-2.2-1.8-6.9,0.7-8.6
		c1.9-1.4,3.3-1,4.6,1.2C-657.2,374-657,375-657,376z M-663.3,375.9c-0.1,1.3,0.3,2.6,1.2,3.6c0.7,0.9,2,1,2.8,0.3
		c0.1-0.1,0.1-0.1,0.2-0.2c1.4-2.1,1.6-4.8,0.3-7c-0.5-0.8-1.5-1.1-2.3-0.7c0,0-0.1,0-0.1,0.1C-662.6,372.7-663.5,374.3-663.3,375.9
		z"/>
</g>
</svg>
